<?xml version="1.0" encoding="utf-8" standalone="no"?>
<!-- Generator: Adobe Illustrator 25.0.1, SVG Export Plug-In . SVG Version: 6.00 Build 0)  --><svg xmlns="http://www.w3.org/2000/svg" xmlns:xlink="http://www.w3.org/1999/xlink" id="Ebene_1" style="enable-background:new 0 0 453.5 453.5;" version="1.1" viewBox="0 0 453.5 453.5" x="0px" xml:space="preserve" y="0px">
<style type="text/css">
	.st0{fill:#008BD2;}
	.st1{fill:#FFED00;}
	.st2{fill:#FFFFFF;}
</style>
<path class="st0" d="M453.2,226.8c0,125.1-101.4,226.4-226.4,226.4C101.7,453.2,0.3,351.8,0.3,226.8C0.3,101.7,101.7,0.3,226.8,0.3  C351.8,0.3,453.2,101.7,453.2,226.8"/>
<path class="st1" d="M147,329.4H82.3l21.8-223.6c2.1-21.4,6.7-36.6,13.8-45.7c7.1-9.1,20.3-13.7,39.6-13.7c27.5,0,43.8,16.7,48.7,50  L226.1,228h1.9l19.9-131.7c2.6-16.9,8-29.5,16.2-37.7c8.2-8.2,19-12.3,32.5-12.3c19.5,0,32.7,4.4,39.8,13.3  c7,8.9,11.6,24.2,13.6,46.1l21.8,223.6h-64.7l-12.9-221.3l-33.5,186c-1.8,10.4-5.8,18.9-12.1,25.4c-6.2,6.5-13.5,9.8-21.8,9.8  c-8.6,0-15.8-3.1-21.8-9.4c-6-6.3-10-14.8-12.1-25.8l-33.5-186L147,329.4z"/>
<path class="st2" d="M98.1,383.4l-11.4-31.2c-0.5-1.2-0.9-2.4-1.3-3.7c0.1,1.4,0.1,2.8,0.1,4.1c0,0-0.6,29.7-0.6,30.7h-3.1  c0,0,0.8-34.7,0.9-36h6c9.8,27.6,10.5,29.4,11.1,31.5c0.7-2.1,1.4-3.8,11.4-31.5h6.1c0,0,0.4,35.2,0.4,36h-3.3  c0-0.9-0.4-30.5-0.4-30.5c0-1.5-0.1-3-0.1-4.4c-0.6,1.4-1.1,3-1.6,4.5L101,383.4H98.1z"/>
<polygon class="st2" points="126.9,383.4 126.9,347.4 146,347.4 146,350.1 130.5,350.1 130.5,363.3 144.7,363.3 144.7,366   130.5,366 130.5,380.7 147.3,380.7 147.3,383.4 "/>
<path class="st2" d="M153.7,347.4h12.2c9.6,0,15,5.2,15,18c0,16.9-9.8,18-18.2,18h-9V347.4z M165.1,380.7c11.1,0,12.3-8.8,12.3-15.5  c0-8.5-2.2-15.2-12.5-15.2h-7.8v30.7H165.1z"/>
<rect class="st2" height="36" width="3.4" x="189" y="347.4"/>
<path class="st2" d="M226.1,383.4l-5.3-14.8h-13.5l-6.2,14.8h-3.4l15.4-36h3.4l13.4,36H226.1z M214.4,351.2l-6,14.8h11.3  L214.4,351.2z"/>
<path class="st2" d="M260.4,357.1c0,0-6.4-0.1-8.1-0.1c0-2.7-0.6-5.7-4.9-5.7c-4.1,0-5.1,2.9-5.1,4.3c0,2.9,2.9,4,5.8,4.9l3,0.9  c6.7,2.1,10.2,4.8,10.2,11c0,8.7-6.8,11.7-13.8,11.7c-10.3,0-14.8-3.7-14.8-10.8v-0.8c1.8,0.1,7.9,0.1,8.8,0.1v0.4  c0,2.9,0.9,6.3,5.8,6.3c5,0,5.5-3.9,5.5-5.2c0-3.2-2-4-6-5.3l-2.3-0.8c-6.5-2.1-10.6-4.2-10.6-10.7c0-7.4,5.4-10.9,13.9-10.9  c9,0,12.9,3.1,12.9,10V357.1z"/>
<polygon class="st2" points="288.5,383.4 288.5,367.2 277.6,367.2 277.6,383.4 268.3,383.4 268.3,347.4 277.6,347.4 277.6,361.6   288.5,361.6 288.5,347.4 297.8,347.4 297.8,383.4 "/>
<path class="st2" d="M320,384.2c-11.5,0-16.3-4.3-16.3-18.2c0-9.9,1.8-19.5,16.9-19.5c12.8,0,16.1,6.6,16.1,17.5  C336.6,377.9,332.5,384.2,320,384.2 M320.4,351.4c-6.8,0-7.2,7.3-7.2,15.4c0,9.9,1.8,12.7,6.9,12.7c5.1,0,7-3.4,7-14.9  C327.1,357.4,326.7,351.4,320.4,351.4"/>
<path class="st2" d="M352.6,383.4h-9.3v-36h15.3c6.9,0,12.7,0.9,12.7,11.4c0,8.5-4.6,11.5-12.5,11.5h-6.2V383.4z M355.7,365.5  c4.4,0,6.5-1.2,6.5-6.9c0-4.2-1.5-6.4-5.8-6.4h-3.8v13.4H355.7z"/>
</svg>
